# xmcd CD database file
#
# Track frame offsets:
#	150
#	16375
#	36187
#
# Disc length: 836 seconds
#
# Revision: 0
# Processed by: cddbd v1.5.1PL0 Copyright (c) Steve Scherf et al.
# Submitted via: CDex 1.51
#
DISCID=1b034203
DTITLE=WINO - THE ACTION(ALL I REALLY WANT TO DO)
DYEAR=2000
DGENRE=Pop
TTITLE0=TheAciton(All I really want to do)
TTITLE1=SPIN
TTITLE2=TheAction(From Dusk Till Dawn Mix)
EXTD=YEAR: 2000
EXTT0=
EXTT1=
EXTT2=
PLAYORDER=
